<mxfile host="app.diagrams.net" modified="2023-12-20T20:18:33.762Z" agent="Mozilla/5.0 (Windows NT 10.0; Win64; x64) AppleWebKit/537.36 (KHTML, like Gecko) Chrome/118.0.5993.771 YaBrowser/23.11.2.771 Yowser/2.5 Safari/537.36" etag="gZ8xu1cYAbLUQBTbMCQ0" version="22.1.11" type="github">
  <diagram name="Страница — 1" id="swvS2B9pMZFHt4Yc-TNV">
    <mxGraphModel dx="1158" dy="658" grid="1" gridSize="10" guides="1" tooltips="1" connect="1" arrows="1" fold="1" page="1" pageScale="1" pageWidth="827" pageHeight="1169" math="0" shadow="0">
      <root>
        <mxCell id="0" />
        <mxCell id="1" parent="0" />
        <mxCell id="wStOIU3TzQ-Em5fd87hs-1" value="Сотрудник" style="rounded=0;whiteSpace=wrap;html=1;" vertex="1" parent="1">
          <mxGeometry x="160" y="100" width="90" height="50" as="geometry" />
        </mxCell>
        <mxCell id="wStOIU3TzQ-Em5fd87hs-2" value="Меню" style="rounded=0;whiteSpace=wrap;html=1;" vertex="1" parent="1">
          <mxGeometry x="510" y="67.5" width="90" height="50" as="geometry" />
        </mxCell>
        <mxCell id="wStOIU3TzQ-Em5fd87hs-3" value="Адресс" style="ellipse;whiteSpace=wrap;html=1;" vertex="1" parent="1">
          <mxGeometry x="60" y="40" width="70" height="50" as="geometry" />
        </mxCell>
        <mxCell id="wStOIU3TzQ-Em5fd87hs-4" value="Имя" style="ellipse;whiteSpace=wrap;html=1;" vertex="1" parent="1">
          <mxGeometry x="130" y="30" width="70" height="50" as="geometry" />
        </mxCell>
        <mxCell id="wStOIU3TzQ-Em5fd87hs-5" value="Фамилия" style="ellipse;whiteSpace=wrap;html=1;" vertex="1" parent="1">
          <mxGeometry x="200" y="30" width="70" height="50" as="geometry" />
        </mxCell>
        <mxCell id="wStOIU3TzQ-Em5fd87hs-6" value="Должность" style="ellipse;whiteSpace=wrap;html=1;" vertex="1" parent="1">
          <mxGeometry x="270" y="40" width="70" height="50" as="geometry" />
        </mxCell>
        <mxCell id="wStOIU3TzQ-Em5fd87hs-7" value="Телефон" style="ellipse;whiteSpace=wrap;html=1;" vertex="1" parent="1">
          <mxGeometry x="60" y="90" width="70" height="50" as="geometry" />
        </mxCell>
        <mxCell id="wStOIU3TzQ-Em5fd87hs-8" value="Эл. почта" style="ellipse;whiteSpace=wrap;html=1;" vertex="1" parent="1">
          <mxGeometry x="80" y="140" width="70" height="50" as="geometry" />
        </mxCell>
        <mxCell id="wStOIU3TzQ-Em5fd87hs-10" value="Заработная&lt;br&gt;плата" style="ellipse;whiteSpace=wrap;html=1;" vertex="1" parent="1">
          <mxGeometry x="140" y="170" width="70" height="50" as="geometry" />
        </mxCell>
        <mxCell id="wStOIU3TzQ-Em5fd87hs-12" value="Название" style="ellipse;whiteSpace=wrap;html=1;" vertex="1" parent="1">
          <mxGeometry x="460" y="12.5" width="70" height="50" as="geometry" />
        </mxCell>
        <mxCell id="wStOIU3TzQ-Em5fd87hs-13" value="Описание" style="ellipse;whiteSpace=wrap;html=1;" vertex="1" parent="1">
          <mxGeometry x="550" y="12.5" width="70" height="50" as="geometry" />
        </mxCell>
        <mxCell id="wStOIU3TzQ-Em5fd87hs-14" value="Цена" style="ellipse;whiteSpace=wrap;html=1;" vertex="1" parent="1">
          <mxGeometry x="620" y="52.5" width="70" height="50" as="geometry" />
        </mxCell>
        <mxCell id="wStOIU3TzQ-Em5fd87hs-15" value="Заказы" style="rounded=0;whiteSpace=wrap;html=1;" vertex="1" parent="1">
          <mxGeometry x="760" y="135" width="90" height="50" as="geometry" />
        </mxCell>
        <mxCell id="wStOIU3TzQ-Em5fd87hs-16" value="Столы" style="rounded=0;whiteSpace=wrap;html=1;" vertex="1" parent="1">
          <mxGeometry x="140" y="280" width="90" height="50" as="geometry" />
        </mxCell>
        <mxCell id="wStOIU3TzQ-Em5fd87hs-17" value="Отзывы" style="rounded=0;whiteSpace=wrap;html=1;" vertex="1" parent="1">
          <mxGeometry x="495" y="240" width="90" height="50" as="geometry" />
        </mxCell>
        <mxCell id="wStOIU3TzQ-Em5fd87hs-18" value="Клиент" style="rounded=0;whiteSpace=wrap;html=1;" vertex="1" parent="1">
          <mxGeometry x="940" y="180" width="90" height="50" as="geometry" />
        </mxCell>
        <mxCell id="wStOIU3TzQ-Em5fd87hs-19" value="Ингридиент" style="rounded=0;whiteSpace=wrap;html=1;" vertex="1" parent="1">
          <mxGeometry x="625" y="380" width="90" height="50" as="geometry" />
        </mxCell>
        <mxCell id="wStOIU3TzQ-Em5fd87hs-20" value="Блюдо" style="rounded=0;whiteSpace=wrap;html=1;" vertex="1" parent="1">
          <mxGeometry x="860" y="395" width="90" height="50" as="geometry" />
        </mxCell>
        <mxCell id="wStOIU3TzQ-Em5fd87hs-21" value="Акция" style="rounded=0;whiteSpace=wrap;html=1;" vertex="1" parent="1">
          <mxGeometry x="787" y="510" width="90" height="50" as="geometry" />
        </mxCell>
        <mxCell id="wStOIU3TzQ-Em5fd87hs-22" value="Дата и&lt;br/&gt;время заказа&amp;nbsp;" style="ellipse;whiteSpace=wrap;html=1;" vertex="1" parent="1">
          <mxGeometry x="805" y="67.5" width="70" height="50" as="geometry" />
        </mxCell>
        <mxCell id="wStOIU3TzQ-Em5fd87hs-24" value="Статус" style="ellipse;whiteSpace=wrap;html=1;" vertex="1" parent="1">
          <mxGeometry x="730" y="67.5" width="70" height="50" as="geometry" />
        </mxCell>
        <mxCell id="wStOIU3TzQ-Em5fd87hs-25" value="Номер стола" style="ellipse;whiteSpace=wrap;html=1;" vertex="1" parent="1">
          <mxGeometry x="40" y="230" width="70" height="50" as="geometry" />
        </mxCell>
        <mxCell id="wStOIU3TzQ-Em5fd87hs-26" value="&lt;font style=&quot;font-size: 10px;&quot;&gt;Вместимость&lt;/font&gt;" style="ellipse;whiteSpace=wrap;html=1;" vertex="1" parent="1">
          <mxGeometry x="30" y="300" width="70" height="50" as="geometry" />
        </mxCell>
        <mxCell id="wStOIU3TzQ-Em5fd87hs-27" value="Состояние" style="ellipse;whiteSpace=wrap;html=1;" vertex="1" parent="1">
          <mxGeometry x="100" y="360" width="70" height="50" as="geometry" />
        </mxCell>
        <mxCell id="wStOIU3TzQ-Em5fd87hs-28" value="Текст&amp;nbsp;" style="ellipse;whiteSpace=wrap;html=1;" vertex="1" parent="1">
          <mxGeometry x="545" y="300" width="70" height="50" as="geometry" />
        </mxCell>
        <mxCell id="wStOIU3TzQ-Em5fd87hs-29" value="Рейтинг" style="ellipse;whiteSpace=wrap;html=1;" vertex="1" parent="1">
          <mxGeometry x="605" y="260" width="70" height="50" as="geometry" />
        </mxCell>
        <mxCell id="wStOIU3TzQ-Em5fd87hs-30" value="Имя" style="ellipse;whiteSpace=wrap;html=1;" vertex="1" parent="1">
          <mxGeometry x="1100" y="200" width="70" height="50" as="geometry" />
        </mxCell>
        <mxCell id="wStOIU3TzQ-Em5fd87hs-31" value="Фамилия" style="ellipse;whiteSpace=wrap;html=1;" vertex="1" parent="1">
          <mxGeometry x="1070" y="150" width="70" height="50" as="geometry" />
        </mxCell>
        <mxCell id="wStOIU3TzQ-Em5fd87hs-32" value="Телефон" style="ellipse;whiteSpace=wrap;html=1;" vertex="1" parent="1">
          <mxGeometry x="1000" y="100" width="70" height="50" as="geometry" />
        </mxCell>
        <mxCell id="wStOIU3TzQ-Em5fd87hs-33" value="Эл. почта" style="ellipse;whiteSpace=wrap;html=1;" vertex="1" parent="1">
          <mxGeometry x="991" y="270" width="69" height="50" as="geometry" />
        </mxCell>
        <mxCell id="wStOIU3TzQ-Em5fd87hs-34" value="Дата рождения" style="ellipse;whiteSpace=wrap;html=1;" vertex="1" parent="1">
          <mxGeometry x="1060" y="250" width="70" height="50" as="geometry" />
        </mxCell>
        <mxCell id="wStOIU3TzQ-Em5fd87hs-35" value="Название" style="ellipse;whiteSpace=wrap;html=1;" vertex="1" parent="1">
          <mxGeometry x="530" y="445" width="70" height="50" as="geometry" />
        </mxCell>
        <mxCell id="wStOIU3TzQ-Em5fd87hs-36" value="Количество на складе" style="ellipse;whiteSpace=wrap;html=1;" vertex="1" parent="1">
          <mxGeometry x="520" y="385" width="70" height="50" as="geometry" />
        </mxCell>
        <mxCell id="wStOIU3TzQ-Em5fd87hs-37" value="Название" style="ellipse;whiteSpace=wrap;html=1;" vertex="1" parent="1">
          <mxGeometry x="920" y="310" width="70" height="50" as="geometry" />
        </mxCell>
        <mxCell id="wStOIU3TzQ-Em5fd87hs-38" value="Описание" style="ellipse;whiteSpace=wrap;html=1;" vertex="1" parent="1">
          <mxGeometry x="970" y="350" width="70" height="50" as="geometry" />
        </mxCell>
        <mxCell id="wStOIU3TzQ-Em5fd87hs-39" value="Цена" style="ellipse;whiteSpace=wrap;html=1;" vertex="1" parent="1">
          <mxGeometry x="980" y="400" width="70" height="50" as="geometry" />
        </mxCell>
        <mxCell id="wStOIU3TzQ-Em5fd87hs-40" value="Категория" style="ellipse;whiteSpace=wrap;html=1;" vertex="1" parent="1">
          <mxGeometry x="970" y="450" width="70" height="50" as="geometry" />
        </mxCell>
        <mxCell id="wStOIU3TzQ-Em5fd87hs-41" value="Ингредиенты" style="ellipse;whiteSpace=wrap;html=1;" vertex="1" parent="1">
          <mxGeometry x="930" y="490" width="70" height="50" as="geometry" />
        </mxCell>
        <mxCell id="wStOIU3TzQ-Em5fd87hs-42" value="Название" style="ellipse;whiteSpace=wrap;html=1;" vertex="1" parent="1">
          <mxGeometry x="700" y="550" width="70" height="50" as="geometry" />
        </mxCell>
        <mxCell id="wStOIU3TzQ-Em5fd87hs-43" value="Описание" style="ellipse;whiteSpace=wrap;html=1;" vertex="1" parent="1">
          <mxGeometry x="760" y="580" width="70" height="50" as="geometry" />
        </mxCell>
        <mxCell id="wStOIU3TzQ-Em5fd87hs-44" value="Дата начала" style="ellipse;whiteSpace=wrap;html=1;" vertex="1" parent="1">
          <mxGeometry x="830" y="580" width="70" height="50" as="geometry" />
        </mxCell>
        <mxCell id="wStOIU3TzQ-Em5fd87hs-45" value="Дата окончания" style="ellipse;whiteSpace=wrap;html=1;" vertex="1" parent="1">
          <mxGeometry x="890" y="550" width="70" height="50" as="geometry" />
        </mxCell>
        <mxCell id="wStOIU3TzQ-Em5fd87hs-50" value="" style="endArrow=none;html=1;rounded=0;entryX=0.927;entryY=0.886;entryDx=0;entryDy=0;entryPerimeter=0;exitX=0;exitY=0.25;exitDx=0;exitDy=0;" edge="1" parent="1" source="wStOIU3TzQ-Em5fd87hs-16" target="wStOIU3TzQ-Em5fd87hs-25">
          <mxGeometry width="50" height="50" relative="1" as="geometry">
            <mxPoint x="150" y="225" as="sourcePoint" />
            <mxPoint x="200" y="175" as="targetPoint" />
          </mxGeometry>
        </mxCell>
        <mxCell id="wStOIU3TzQ-Em5fd87hs-54" value="" style="endArrow=none;html=1;rounded=0;entryX=0.25;entryY=1;entryDx=0;entryDy=0;exitX=0.5;exitY=0;exitDx=0;exitDy=0;" edge="1" parent="1" source="wStOIU3TzQ-Em5fd87hs-10" target="wStOIU3TzQ-Em5fd87hs-1">
          <mxGeometry width="50" height="50" relative="1" as="geometry">
            <mxPoint x="400" y="330" as="sourcePoint" />
            <mxPoint x="450" y="280" as="targetPoint" />
          </mxGeometry>
        </mxCell>
        <mxCell id="wStOIU3TzQ-Em5fd87hs-55" value="" style="endArrow=none;html=1;rounded=0;entryX=0;entryY=0.5;entryDx=0;entryDy=0;exitX=1;exitY=0;exitDx=0;exitDy=0;" edge="1" parent="1" source="wStOIU3TzQ-Em5fd87hs-8" target="wStOIU3TzQ-Em5fd87hs-1">
          <mxGeometry width="50" height="50" relative="1" as="geometry">
            <mxPoint x="400" y="330" as="sourcePoint" />
            <mxPoint x="450" y="280" as="targetPoint" />
          </mxGeometry>
        </mxCell>
        <mxCell id="wStOIU3TzQ-Em5fd87hs-56" value="" style="endArrow=none;html=1;rounded=0;entryX=0;entryY=0.25;entryDx=0;entryDy=0;exitX=1;exitY=0.5;exitDx=0;exitDy=0;" edge="1" parent="1" source="wStOIU3TzQ-Em5fd87hs-7" target="wStOIU3TzQ-Em5fd87hs-1">
          <mxGeometry width="50" height="50" relative="1" as="geometry">
            <mxPoint x="400" y="330" as="sourcePoint" />
            <mxPoint x="450" y="280" as="targetPoint" />
          </mxGeometry>
        </mxCell>
        <mxCell id="wStOIU3TzQ-Em5fd87hs-57" value="" style="endArrow=none;html=1;rounded=0;entryX=0;entryY=0;entryDx=0;entryDy=0;exitX=1;exitY=1;exitDx=0;exitDy=0;" edge="1" parent="1" source="wStOIU3TzQ-Em5fd87hs-3" target="wStOIU3TzQ-Em5fd87hs-1">
          <mxGeometry width="50" height="50" relative="1" as="geometry">
            <mxPoint x="400" y="330" as="sourcePoint" />
            <mxPoint x="450" y="280" as="targetPoint" />
          </mxGeometry>
        </mxCell>
        <mxCell id="wStOIU3TzQ-Em5fd87hs-58" value="" style="endArrow=none;html=1;rounded=0;entryX=0.25;entryY=0;entryDx=0;entryDy=0;exitX=0.5;exitY=1;exitDx=0;exitDy=0;" edge="1" parent="1" source="wStOIU3TzQ-Em5fd87hs-4" target="wStOIU3TzQ-Em5fd87hs-1">
          <mxGeometry width="50" height="50" relative="1" as="geometry">
            <mxPoint x="400" y="330" as="sourcePoint" />
            <mxPoint x="450" y="280" as="targetPoint" />
          </mxGeometry>
        </mxCell>
        <mxCell id="wStOIU3TzQ-Em5fd87hs-59" value="" style="endArrow=none;html=1;rounded=0;entryX=0.5;entryY=0;entryDx=0;entryDy=0;exitX=0.5;exitY=1;exitDx=0;exitDy=0;" edge="1" parent="1" source="wStOIU3TzQ-Em5fd87hs-5" target="wStOIU3TzQ-Em5fd87hs-1">
          <mxGeometry width="50" height="50" relative="1" as="geometry">
            <mxPoint x="400" y="330" as="sourcePoint" />
            <mxPoint x="450" y="280" as="targetPoint" />
          </mxGeometry>
        </mxCell>
        <mxCell id="wStOIU3TzQ-Em5fd87hs-60" value="" style="endArrow=none;html=1;rounded=0;entryX=1;entryY=0;entryDx=0;entryDy=0;exitX=0;exitY=1;exitDx=0;exitDy=0;" edge="1" parent="1" source="wStOIU3TzQ-Em5fd87hs-6" target="wStOIU3TzQ-Em5fd87hs-1">
          <mxGeometry width="50" height="50" relative="1" as="geometry">
            <mxPoint x="400" y="330" as="sourcePoint" />
            <mxPoint x="450" y="280" as="targetPoint" />
          </mxGeometry>
        </mxCell>
        <mxCell id="wStOIU3TzQ-Em5fd87hs-61" value="" style="endArrow=none;html=1;rounded=0;entryX=0.5;entryY=1;entryDx=0;entryDy=0;exitX=0.75;exitY=0;exitDx=0;exitDy=0;" edge="1" parent="1" source="wStOIU3TzQ-Em5fd87hs-15" target="wStOIU3TzQ-Em5fd87hs-22">
          <mxGeometry width="50" height="50" relative="1" as="geometry">
            <mxPoint x="1060" y="95" as="sourcePoint" />
            <mxPoint x="1110" y="45" as="targetPoint" />
          </mxGeometry>
        </mxCell>
        <mxCell id="wStOIU3TzQ-Em5fd87hs-62" value="" style="endArrow=none;html=1;rounded=0;entryX=0.5;entryY=1;entryDx=0;entryDy=0;exitX=0.25;exitY=0;exitDx=0;exitDy=0;" edge="1" parent="1" source="wStOIU3TzQ-Em5fd87hs-15" target="wStOIU3TzQ-Em5fd87hs-24">
          <mxGeometry width="50" height="50" relative="1" as="geometry">
            <mxPoint x="1060" y="95" as="sourcePoint" />
            <mxPoint x="1110" y="45" as="targetPoint" />
          </mxGeometry>
        </mxCell>
        <mxCell id="wStOIU3TzQ-Em5fd87hs-63" value="" style="endArrow=none;html=1;rounded=0;entryX=0.25;entryY=0;entryDx=0;entryDy=0;exitX=1;exitY=1;exitDx=0;exitDy=0;" edge="1" parent="1" source="wStOIU3TzQ-Em5fd87hs-12" target="wStOIU3TzQ-Em5fd87hs-2">
          <mxGeometry width="50" height="50" relative="1" as="geometry">
            <mxPoint x="300" y="267.5" as="sourcePoint" />
            <mxPoint x="350" y="217.5" as="targetPoint" />
          </mxGeometry>
        </mxCell>
        <mxCell id="wStOIU3TzQ-Em5fd87hs-64" value="" style="endArrow=none;html=1;rounded=0;entryX=0.5;entryY=1;entryDx=0;entryDy=0;exitX=0.75;exitY=0;exitDx=0;exitDy=0;" edge="1" parent="1" source="wStOIU3TzQ-Em5fd87hs-2" target="wStOIU3TzQ-Em5fd87hs-13">
          <mxGeometry width="50" height="50" relative="1" as="geometry">
            <mxPoint x="300" y="267.5" as="sourcePoint" />
            <mxPoint x="350" y="217.5" as="targetPoint" />
          </mxGeometry>
        </mxCell>
        <mxCell id="wStOIU3TzQ-Em5fd87hs-65" value="" style="endArrow=none;html=1;rounded=0;entryX=0;entryY=0.5;entryDx=0;entryDy=0;exitX=1;exitY=0.5;exitDx=0;exitDy=0;" edge="1" parent="1" source="wStOIU3TzQ-Em5fd87hs-2" target="wStOIU3TzQ-Em5fd87hs-14">
          <mxGeometry width="50" height="50" relative="1" as="geometry">
            <mxPoint x="300" y="267.5" as="sourcePoint" />
            <mxPoint x="350" y="217.5" as="targetPoint" />
          </mxGeometry>
        </mxCell>
        <mxCell id="wStOIU3TzQ-Em5fd87hs-67" value="" style="endArrow=none;html=1;rounded=0;entryX=0;entryY=0.5;entryDx=0;entryDy=0;exitX=1;exitY=0.75;exitDx=0;exitDy=0;" edge="1" parent="1" source="wStOIU3TzQ-Em5fd87hs-17" target="wStOIU3TzQ-Em5fd87hs-29">
          <mxGeometry width="50" height="50" relative="1" as="geometry">
            <mxPoint x="285" y="390" as="sourcePoint" />
            <mxPoint x="335" y="340" as="targetPoint" />
          </mxGeometry>
        </mxCell>
        <mxCell id="wStOIU3TzQ-Em5fd87hs-68" value="" style="endArrow=none;html=1;rounded=0;entryX=0;entryY=1;entryDx=0;entryDy=0;exitX=0.75;exitY=0;exitDx=0;exitDy=0;" edge="1" parent="1" source="wStOIU3TzQ-Em5fd87hs-20" target="wStOIU3TzQ-Em5fd87hs-37">
          <mxGeometry width="50" height="50" relative="1" as="geometry">
            <mxPoint x="800" y="370" as="sourcePoint" />
            <mxPoint x="850" y="320" as="targetPoint" />
          </mxGeometry>
        </mxCell>
        <mxCell id="wStOIU3TzQ-Em5fd87hs-69" value="" style="endArrow=none;html=1;rounded=0;entryX=0;entryY=0.5;entryDx=0;entryDy=0;exitX=1;exitY=0.25;exitDx=0;exitDy=0;" edge="1" parent="1" source="wStOIU3TzQ-Em5fd87hs-20" target="wStOIU3TzQ-Em5fd87hs-38">
          <mxGeometry width="50" height="50" relative="1" as="geometry">
            <mxPoint x="900" y="390" as="sourcePoint" />
            <mxPoint x="950" y="340" as="targetPoint" />
          </mxGeometry>
        </mxCell>
        <mxCell id="wStOIU3TzQ-Em5fd87hs-70" value="" style="endArrow=none;html=1;rounded=0;exitX=0.5;exitY=0;exitDx=0;exitDy=0;entryX=0.75;entryY=1;entryDx=0;entryDy=0;" edge="1" parent="1" source="wStOIU3TzQ-Em5fd87hs-41" target="wStOIU3TzQ-Em5fd87hs-20">
          <mxGeometry width="50" height="50" relative="1" as="geometry">
            <mxPoint x="790" y="460" as="sourcePoint" />
            <mxPoint x="840" y="410" as="targetPoint" />
          </mxGeometry>
        </mxCell>
        <mxCell id="wStOIU3TzQ-Em5fd87hs-72" value="" style="endArrow=none;html=1;rounded=0;entryX=1;entryY=1;entryDx=0;entryDy=0;exitX=0;exitY=0;exitDx=0;exitDy=0;" edge="1" parent="1" source="wStOIU3TzQ-Em5fd87hs-40" target="wStOIU3TzQ-Em5fd87hs-20">
          <mxGeometry width="50" height="50" relative="1" as="geometry">
            <mxPoint x="830" y="460" as="sourcePoint" />
            <mxPoint x="880" y="410" as="targetPoint" />
          </mxGeometry>
        </mxCell>
        <mxCell id="wStOIU3TzQ-Em5fd87hs-73" value="" style="endArrow=none;html=1;rounded=0;entryX=0;entryY=0.5;entryDx=0;entryDy=0;exitX=1;exitY=0.5;exitDx=0;exitDy=0;" edge="1" parent="1" source="wStOIU3TzQ-Em5fd87hs-20" target="wStOIU3TzQ-Em5fd87hs-39">
          <mxGeometry width="50" height="50" relative="1" as="geometry">
            <mxPoint x="720" y="420" as="sourcePoint" />
            <mxPoint x="770" y="370" as="targetPoint" />
          </mxGeometry>
        </mxCell>
        <mxCell id="wStOIU3TzQ-Em5fd87hs-75" value="" style="endArrow=none;html=1;rounded=0;entryX=0;entryY=0.5;entryDx=0;entryDy=0;exitX=1;exitY=0;exitDx=0;exitDy=0;" edge="1" parent="1" source="wStOIU3TzQ-Em5fd87hs-42" target="wStOIU3TzQ-Em5fd87hs-21">
          <mxGeometry width="50" height="50" relative="1" as="geometry">
            <mxPoint x="630" y="580" as="sourcePoint" />
            <mxPoint x="680" y="530" as="targetPoint" />
          </mxGeometry>
        </mxCell>
        <mxCell id="wStOIU3TzQ-Em5fd87hs-76" value="" style="endArrow=none;html=1;rounded=0;entryX=0.25;entryY=1;entryDx=0;entryDy=0;exitX=0.5;exitY=0;exitDx=0;exitDy=0;" edge="1" parent="1" source="wStOIU3TzQ-Em5fd87hs-43" target="wStOIU3TzQ-Em5fd87hs-21">
          <mxGeometry width="50" height="50" relative="1" as="geometry">
            <mxPoint x="710" y="680" as="sourcePoint" />
            <mxPoint x="760" y="630" as="targetPoint" />
          </mxGeometry>
        </mxCell>
        <mxCell id="wStOIU3TzQ-Em5fd87hs-77" value="" style="endArrow=none;html=1;rounded=0;entryX=0.75;entryY=1;entryDx=0;entryDy=0;exitX=0.5;exitY=0;exitDx=0;exitDy=0;" edge="1" parent="1" source="wStOIU3TzQ-Em5fd87hs-44" target="wStOIU3TzQ-Em5fd87hs-21">
          <mxGeometry width="50" height="50" relative="1" as="geometry">
            <mxPoint x="530" y="560" as="sourcePoint" />
            <mxPoint x="580" y="510" as="targetPoint" />
          </mxGeometry>
        </mxCell>
        <mxCell id="wStOIU3TzQ-Em5fd87hs-78" value="" style="endArrow=none;html=1;rounded=0;entryX=0;entryY=0;entryDx=0;entryDy=0;exitX=1;exitY=0.5;exitDx=0;exitDy=0;" edge="1" parent="1" source="wStOIU3TzQ-Em5fd87hs-21" target="wStOIU3TzQ-Em5fd87hs-45">
          <mxGeometry width="50" height="50" relative="1" as="geometry">
            <mxPoint x="840" y="680" as="sourcePoint" />
            <mxPoint x="890" y="630" as="targetPoint" />
          </mxGeometry>
        </mxCell>
        <mxCell id="wStOIU3TzQ-Em5fd87hs-79" value="" style="endArrow=none;html=1;rounded=0;entryX=0.5;entryY=1;entryDx=0;entryDy=0;exitX=1;exitY=0;exitDx=0;exitDy=0;" edge="1" parent="1" source="wStOIU3TzQ-Em5fd87hs-18" target="wStOIU3TzQ-Em5fd87hs-32">
          <mxGeometry width="50" height="50" relative="1" as="geometry">
            <mxPoint x="1040" y="210" as="sourcePoint" />
            <mxPoint x="1090" y="160" as="targetPoint" />
          </mxGeometry>
        </mxCell>
        <mxCell id="wStOIU3TzQ-Em5fd87hs-80" value="" style="endArrow=none;html=1;rounded=0;entryX=0;entryY=0.5;entryDx=0;entryDy=0;exitX=1;exitY=0.25;exitDx=0;exitDy=0;" edge="1" parent="1" source="wStOIU3TzQ-Em5fd87hs-18" target="wStOIU3TzQ-Em5fd87hs-31">
          <mxGeometry width="50" height="50" relative="1" as="geometry">
            <mxPoint x="1210" y="250" as="sourcePoint" />
            <mxPoint x="1260" y="200" as="targetPoint" />
          </mxGeometry>
        </mxCell>
        <mxCell id="wStOIU3TzQ-Em5fd87hs-81" value="" style="endArrow=none;html=1;rounded=0;entryX=0;entryY=0.5;entryDx=0;entryDy=0;exitX=1;exitY=0.5;exitDx=0;exitDy=0;" edge="1" parent="1" source="wStOIU3TzQ-Em5fd87hs-18" target="wStOIU3TzQ-Em5fd87hs-30">
          <mxGeometry width="50" height="50" relative="1" as="geometry">
            <mxPoint x="1210" y="250" as="sourcePoint" />
            <mxPoint x="1260" y="200" as="targetPoint" />
          </mxGeometry>
        </mxCell>
        <mxCell id="wStOIU3TzQ-Em5fd87hs-82" value="" style="endArrow=none;html=1;rounded=0;entryX=0.5;entryY=0;entryDx=0;entryDy=0;exitX=0.5;exitY=1;exitDx=0;exitDy=0;" edge="1" parent="1" source="wStOIU3TzQ-Em5fd87hs-18" target="wStOIU3TzQ-Em5fd87hs-33">
          <mxGeometry width="50" height="50" relative="1" as="geometry">
            <mxPoint x="1210" y="250" as="sourcePoint" />
            <mxPoint x="1260" y="200" as="targetPoint" />
          </mxGeometry>
        </mxCell>
        <mxCell id="wStOIU3TzQ-Em5fd87hs-83" value="" style="endArrow=none;html=1;rounded=0;entryX=0.75;entryY=1;entryDx=0;entryDy=0;exitX=0;exitY=0;exitDx=0;exitDy=0;" edge="1" parent="1" source="wStOIU3TzQ-Em5fd87hs-34" target="wStOIU3TzQ-Em5fd87hs-18">
          <mxGeometry width="50" height="50" relative="1" as="geometry">
            <mxPoint x="1210" y="250" as="sourcePoint" />
            <mxPoint x="1260" y="200" as="targetPoint" />
          </mxGeometry>
        </mxCell>
        <mxCell id="wStOIU3TzQ-Em5fd87hs-84" value="" style="endArrow=none;html=1;rounded=0;entryX=1;entryY=0;entryDx=0;entryDy=0;exitX=0;exitY=0.75;exitDx=0;exitDy=0;" edge="1" parent="1" source="wStOIU3TzQ-Em5fd87hs-19" target="wStOIU3TzQ-Em5fd87hs-35">
          <mxGeometry width="50" height="50" relative="1" as="geometry">
            <mxPoint x="700" y="365" as="sourcePoint" />
            <mxPoint x="750" y="315" as="targetPoint" />
          </mxGeometry>
        </mxCell>
        <mxCell id="wStOIU3TzQ-Em5fd87hs-85" value="" style="endArrow=none;html=1;rounded=0;exitX=0;exitY=0.25;exitDx=0;exitDy=0;entryX=1;entryY=0.5;entryDx=0;entryDy=0;" edge="1" parent="1" source="wStOIU3TzQ-Em5fd87hs-19" target="wStOIU3TzQ-Em5fd87hs-36">
          <mxGeometry width="50" height="50" relative="1" as="geometry">
            <mxPoint x="700" y="365" as="sourcePoint" />
            <mxPoint x="590" y="395" as="targetPoint" />
          </mxGeometry>
        </mxCell>
        <mxCell id="wStOIU3TzQ-Em5fd87hs-86" value="Ресторан" style="rounded=0;whiteSpace=wrap;html=1;" vertex="1" parent="1">
          <mxGeometry x="350" y="160" width="90" height="50" as="geometry" />
        </mxCell>
        <mxCell id="wStOIU3TzQ-Em5fd87hs-87" value="Имеет" style="rhombus;whiteSpace=wrap;html=1;" vertex="1" parent="1">
          <mxGeometry x="260" y="155" width="60" height="50" as="geometry" />
        </mxCell>
        <mxCell id="wStOIU3TzQ-Em5fd87hs-88" value="" style="endArrow=none;html=1;rounded=0;entryX=0;entryY=0.594;entryDx=0;entryDy=0;entryPerimeter=0;exitX=1;exitY=0.5;exitDx=0;exitDy=0;" edge="1" parent="1" source="wStOIU3TzQ-Em5fd87hs-87" target="wStOIU3TzQ-Em5fd87hs-86">
          <mxGeometry width="50" height="50" relative="1" as="geometry">
            <mxPoint x="400" y="270" as="sourcePoint" />
            <mxPoint x="450" y="220" as="targetPoint" />
          </mxGeometry>
        </mxCell>
        <mxCell id="wStOIU3TzQ-Em5fd87hs-89" value="" style="endArrow=none;html=1;rounded=0;exitX=0;exitY=0;exitDx=0;exitDy=0;entryX=1;entryY=1;entryDx=0;entryDy=0;" edge="1" parent="1" source="wStOIU3TzQ-Em5fd87hs-87" target="wStOIU3TzQ-Em5fd87hs-1">
          <mxGeometry width="50" height="50" relative="1" as="geometry">
            <mxPoint x="400" y="270" as="sourcePoint" />
            <mxPoint x="250" y="160" as="targetPoint" />
          </mxGeometry>
        </mxCell>
        <mxCell id="wStOIU3TzQ-Em5fd87hs-90" value="Имеет" style="rhombus;whiteSpace=wrap;html=1;" vertex="1" parent="1">
          <mxGeometry x="470" y="140" width="60" height="50" as="geometry" />
        </mxCell>
        <mxCell id="wStOIU3TzQ-Em5fd87hs-91" value="" style="endArrow=none;html=1;rounded=0;entryX=0;entryY=0.5;entryDx=0;entryDy=0;exitX=1;exitY=0.5;exitDx=0;exitDy=0;" edge="1" parent="1" source="wStOIU3TzQ-Em5fd87hs-86" target="wStOIU3TzQ-Em5fd87hs-90">
          <mxGeometry width="50" height="50" relative="1" as="geometry">
            <mxPoint x="400" y="270" as="sourcePoint" />
            <mxPoint x="450" y="220" as="targetPoint" />
          </mxGeometry>
        </mxCell>
        <mxCell id="wStOIU3TzQ-Em5fd87hs-92" value="" style="endArrow=none;html=1;rounded=0;entryX=0.5;entryY=1;entryDx=0;entryDy=0;" edge="1" parent="1" source="wStOIU3TzQ-Em5fd87hs-90" target="wStOIU3TzQ-Em5fd87hs-2">
          <mxGeometry width="50" height="50" relative="1" as="geometry">
            <mxPoint x="400" y="270" as="sourcePoint" />
            <mxPoint x="450" y="220" as="targetPoint" />
          </mxGeometry>
        </mxCell>
        <mxCell id="wStOIU3TzQ-Em5fd87hs-93" value="" style="rhombus;whiteSpace=wrap;html=1;" vertex="1" parent="1">
          <mxGeometry x="655" y="135" width="60" height="50" as="geometry" />
        </mxCell>
        <mxCell id="wStOIU3TzQ-Em5fd87hs-94" value="" style="endArrow=none;html=1;rounded=0;entryX=1;entryY=1;entryDx=0;entryDy=0;exitX=0;exitY=0.5;exitDx=0;exitDy=0;" edge="1" parent="1" source="wStOIU3TzQ-Em5fd87hs-93" target="wStOIU3TzQ-Em5fd87hs-2">
          <mxGeometry width="50" height="50" relative="1" as="geometry">
            <mxPoint x="400" y="270" as="sourcePoint" />
            <mxPoint x="450" y="220" as="targetPoint" />
          </mxGeometry>
        </mxCell>
        <mxCell id="wStOIU3TzQ-Em5fd87hs-95" value="" style="endArrow=none;html=1;rounded=0;entryX=1;entryY=0.5;entryDx=0;entryDy=0;exitX=0;exitY=0.5;exitDx=0;exitDy=0;" edge="1" parent="1" source="wStOIU3TzQ-Em5fd87hs-15" target="wStOIU3TzQ-Em5fd87hs-93">
          <mxGeometry width="50" height="50" relative="1" as="geometry">
            <mxPoint x="400" y="270" as="sourcePoint" />
            <mxPoint x="450" y="220" as="targetPoint" />
          </mxGeometry>
        </mxCell>
        <mxCell id="wStOIU3TzQ-Em5fd87hs-96" value="" style="endArrow=none;html=1;rounded=0;entryX=0;entryY=0.75;entryDx=0;entryDy=0;exitX=1;exitY=0.5;exitDx=0;exitDy=0;" edge="1" parent="1" source="wStOIU3TzQ-Em5fd87hs-26" target="wStOIU3TzQ-Em5fd87hs-16">
          <mxGeometry width="50" height="50" relative="1" as="geometry">
            <mxPoint x="50" y="410" as="sourcePoint" />
            <mxPoint x="80" y="380" as="targetPoint" />
          </mxGeometry>
        </mxCell>
        <mxCell id="wStOIU3TzQ-Em5fd87hs-97" value="" style="endArrow=none;html=1;rounded=0;entryX=0.5;entryY=1;entryDx=0;entryDy=0;exitX=0.5;exitY=0;exitDx=0;exitDy=0;" edge="1" parent="1" source="wStOIU3TzQ-Em5fd87hs-27" target="wStOIU3TzQ-Em5fd87hs-16">
          <mxGeometry width="50" height="50" relative="1" as="geometry">
            <mxPoint x="370" y="500" as="sourcePoint" />
            <mxPoint x="420" y="450" as="targetPoint" />
          </mxGeometry>
        </mxCell>
        <mxCell id="wStOIU3TzQ-Em5fd87hs-99" value="Имеет" style="rhombus;whiteSpace=wrap;html=1;" vertex="1" parent="1">
          <mxGeometry x="260" y="230" width="60" height="50" as="geometry" />
        </mxCell>
        <mxCell id="wStOIU3TzQ-Em5fd87hs-100" value="" style="endArrow=none;html=1;rounded=0;entryX=0;entryY=1;entryDx=0;entryDy=0;exitX=1;exitY=0;exitDx=0;exitDy=0;" edge="1" parent="1" source="wStOIU3TzQ-Em5fd87hs-16" target="wStOIU3TzQ-Em5fd87hs-99">
          <mxGeometry width="50" height="50" relative="1" as="geometry">
            <mxPoint x="400" y="330" as="sourcePoint" />
            <mxPoint x="450" y="280" as="targetPoint" />
          </mxGeometry>
        </mxCell>
        <mxCell id="wStOIU3TzQ-Em5fd87hs-101" value="" style="endArrow=none;html=1;rounded=0;entryX=0;entryY=1;entryDx=0;entryDy=0;" edge="1" parent="1" source="wStOIU3TzQ-Em5fd87hs-99" target="wStOIU3TzQ-Em5fd87hs-86">
          <mxGeometry width="50" height="50" relative="1" as="geometry">
            <mxPoint x="400" y="330" as="sourcePoint" />
            <mxPoint x="450" y="280" as="targetPoint" />
          </mxGeometry>
        </mxCell>
        <mxCell id="wStOIU3TzQ-Em5fd87hs-102" value="" style="endArrow=none;html=1;rounded=0;entryX=0.75;entryY=1;entryDx=0;entryDy=0;exitX=0.5;exitY=0;exitDx=0;exitDy=0;" edge="1" parent="1" source="wStOIU3TzQ-Em5fd87hs-28" target="wStOIU3TzQ-Em5fd87hs-17">
          <mxGeometry width="50" height="50" relative="1" as="geometry">
            <mxPoint x="425" y="290" as="sourcePoint" />
            <mxPoint x="475" y="240" as="targetPoint" />
          </mxGeometry>
        </mxCell>
        <mxCell id="wStOIU3TzQ-Em5fd87hs-104" value="Имеет" style="rhombus;whiteSpace=wrap;html=1;" vertex="1" parent="1">
          <mxGeometry x="415" y="240" width="60" height="50" as="geometry" />
        </mxCell>
        <mxCell id="wStOIU3TzQ-Em5fd87hs-105" value="" style="endArrow=none;html=1;rounded=0;entryX=0.75;entryY=1;entryDx=0;entryDy=0;exitX=0;exitY=0;exitDx=0;exitDy=0;" edge="1" parent="1" source="wStOIU3TzQ-Em5fd87hs-104" target="wStOIU3TzQ-Em5fd87hs-86">
          <mxGeometry width="50" height="50" relative="1" as="geometry">
            <mxPoint x="410" y="260" as="sourcePoint" />
            <mxPoint x="450" y="280" as="targetPoint" />
          </mxGeometry>
        </mxCell>
        <mxCell id="wStOIU3TzQ-Em5fd87hs-106" value="" style="endArrow=none;html=1;rounded=0;entryX=1;entryY=0.5;entryDx=0;entryDy=0;exitX=0;exitY=0.5;exitDx=0;exitDy=0;" edge="1" parent="1" source="wStOIU3TzQ-Em5fd87hs-17" target="wStOIU3TzQ-Em5fd87hs-104">
          <mxGeometry width="50" height="50" relative="1" as="geometry">
            <mxPoint x="400" y="330" as="sourcePoint" />
            <mxPoint x="450" y="280" as="targetPoint" />
          </mxGeometry>
        </mxCell>
        <mxCell id="wStOIU3TzQ-Em5fd87hs-107" value="" style="rhombus;whiteSpace=wrap;html=1;" vertex="1" parent="1">
          <mxGeometry x="860" y="180" width="60" height="50" as="geometry" />
        </mxCell>
        <mxCell id="wStOIU3TzQ-Em5fd87hs-108" value="" style="endArrow=none;html=1;rounded=0;entryX=0;entryY=0.5;entryDx=0;entryDy=0;exitX=1;exitY=0.5;exitDx=0;exitDy=0;" edge="1" parent="1" source="wStOIU3TzQ-Em5fd87hs-107" target="wStOIU3TzQ-Em5fd87hs-18">
          <mxGeometry width="50" height="50" relative="1" as="geometry">
            <mxPoint x="820" y="330" as="sourcePoint" />
            <mxPoint x="870" y="280" as="targetPoint" />
          </mxGeometry>
        </mxCell>
        <mxCell id="wStOIU3TzQ-Em5fd87hs-109" value="" style="endArrow=none;html=1;rounded=0;entryX=0;entryY=0;entryDx=0;entryDy=0;exitX=1;exitY=0.5;exitDx=0;exitDy=0;" edge="1" parent="1" source="wStOIU3TzQ-Em5fd87hs-15" target="wStOIU3TzQ-Em5fd87hs-107">
          <mxGeometry width="50" height="50" relative="1" as="geometry">
            <mxPoint x="820" y="330" as="sourcePoint" />
            <mxPoint x="870" y="280" as="targetPoint" />
          </mxGeometry>
        </mxCell>
        <mxCell id="wStOIU3TzQ-Em5fd87hs-111" value="" style="rhombus;whiteSpace=wrap;html=1;" vertex="1" parent="1">
          <mxGeometry x="815" y="260" width="60" height="50" as="geometry" />
        </mxCell>
        <mxCell id="wStOIU3TzQ-Em5fd87hs-112" value="" style="endArrow=none;html=1;rounded=0;entryX=0.5;entryY=1;entryDx=0;entryDy=0;exitX=0;exitY=0;exitDx=0;exitDy=0;" edge="1" parent="1" source="wStOIU3TzQ-Em5fd87hs-111" target="wStOIU3TzQ-Em5fd87hs-15">
          <mxGeometry width="50" height="50" relative="1" as="geometry">
            <mxPoint x="820" y="280" as="sourcePoint" />
            <mxPoint x="870" y="230" as="targetPoint" />
          </mxGeometry>
        </mxCell>
        <mxCell id="wStOIU3TzQ-Em5fd87hs-113" value="" style="endArrow=none;html=1;rounded=0;entryX=1;entryY=1;entryDx=0;entryDy=0;" edge="1" parent="1" source="wStOIU3TzQ-Em5fd87hs-20" target="wStOIU3TzQ-Em5fd87hs-111">
          <mxGeometry width="50" height="50" relative="1" as="geometry">
            <mxPoint x="820" y="280" as="sourcePoint" />
            <mxPoint x="870" y="230" as="targetPoint" />
          </mxGeometry>
        </mxCell>
        <mxCell id="wStOIU3TzQ-Em5fd87hs-114" value="" style="rhombus;whiteSpace=wrap;html=1;" vertex="1" parent="1">
          <mxGeometry x="755" y="362.5" width="60" height="50" as="geometry" />
        </mxCell>
        <mxCell id="wStOIU3TzQ-Em5fd87hs-116" value="" style="endArrow=none;html=1;rounded=0;entryX=0;entryY=0.5;entryDx=0;entryDy=0;exitX=1;exitY=0.5;exitDx=0;exitDy=0;" edge="1" parent="1" source="wStOIU3TzQ-Em5fd87hs-19" target="wStOIU3TzQ-Em5fd87hs-114">
          <mxGeometry width="50" height="50" relative="1" as="geometry">
            <mxPoint x="820" y="560" as="sourcePoint" />
            <mxPoint x="870" y="510" as="targetPoint" />
          </mxGeometry>
        </mxCell>
        <mxCell id="wStOIU3TzQ-Em5fd87hs-117" value="" style="endArrow=none;html=1;rounded=0;entryX=0;entryY=0.25;entryDx=0;entryDy=0;exitX=1;exitY=0.5;exitDx=0;exitDy=0;" edge="1" parent="1" source="wStOIU3TzQ-Em5fd87hs-114" target="wStOIU3TzQ-Em5fd87hs-20">
          <mxGeometry width="50" height="50" relative="1" as="geometry">
            <mxPoint x="820" y="560" as="sourcePoint" />
            <mxPoint x="870" y="510" as="targetPoint" />
          </mxGeometry>
        </mxCell>
        <mxCell id="wStOIU3TzQ-Em5fd87hs-119" value="" style="rhombus;whiteSpace=wrap;html=1;" vertex="1" parent="1">
          <mxGeometry x="800" y="445" width="60" height="50" as="geometry" />
        </mxCell>
        <mxCell id="wStOIU3TzQ-Em5fd87hs-120" value="" style="endArrow=none;html=1;rounded=0;entryX=0;entryY=1;entryDx=0;entryDy=0;exitX=1;exitY=0;exitDx=0;exitDy=0;" edge="1" parent="1" source="wStOIU3TzQ-Em5fd87hs-119" target="wStOIU3TzQ-Em5fd87hs-20">
          <mxGeometry width="50" height="50" relative="1" as="geometry">
            <mxPoint x="750" y="560" as="sourcePoint" />
            <mxPoint x="800" y="510" as="targetPoint" />
          </mxGeometry>
        </mxCell>
        <mxCell id="wStOIU3TzQ-Em5fd87hs-121" value="" style="endArrow=none;html=1;rounded=0;entryX=0;entryY=1;entryDx=0;entryDy=0;exitX=0;exitY=0;exitDx=0;exitDy=0;" edge="1" parent="1" source="wStOIU3TzQ-Em5fd87hs-21" target="wStOIU3TzQ-Em5fd87hs-119">
          <mxGeometry width="50" height="50" relative="1" as="geometry">
            <mxPoint x="750" y="560" as="sourcePoint" />
            <mxPoint x="800" y="510" as="targetPoint" />
          </mxGeometry>
        </mxCell>
        <mxCell id="wStOIU3TzQ-Em5fd87hs-130" value="М" style="text;html=1;strokeColor=none;fillColor=none;align=center;verticalAlign=middle;whiteSpace=wrap;rounded=0;" vertex="1" parent="1">
          <mxGeometry x="475" y="250" width="20" height="15" as="geometry" />
        </mxCell>
        <mxCell id="wStOIU3TzQ-Em5fd87hs-132" value="М" style="text;html=1;strokeColor=none;fillColor=none;align=center;verticalAlign=middle;whiteSpace=wrap;rounded=0;" vertex="1" parent="1">
          <mxGeometry x="250" y="140" width="20" height="15" as="geometry" />
        </mxCell>
        <mxCell id="wStOIU3TzQ-Em5fd87hs-133" value="М" style="text;html=1;strokeColor=none;fillColor=none;align=center;verticalAlign=middle;whiteSpace=wrap;rounded=0;" vertex="1" parent="1">
          <mxGeometry x="220" y="265" width="20" height="15" as="geometry" />
        </mxCell>
        <mxCell id="wStOIU3TzQ-Em5fd87hs-134" value="М" style="text;html=1;strokeColor=none;fillColor=none;align=center;verticalAlign=middle;whiteSpace=wrap;rounded=0;" vertex="1" parent="1">
          <mxGeometry x="420" y="210" width="20" height="15" as="geometry" />
        </mxCell>
        <mxCell id="wStOIU3TzQ-Em5fd87hs-135" value="М" style="text;html=1;strokeColor=none;fillColor=none;align=center;verticalAlign=middle;whiteSpace=wrap;rounded=0;" vertex="1" parent="1">
          <mxGeometry x="330" y="170" width="20" height="15" as="geometry" />
        </mxCell>
        <mxCell id="wStOIU3TzQ-Em5fd87hs-137" value="1" style="text;html=1;strokeColor=none;fillColor=none;align=center;verticalAlign=middle;whiteSpace=wrap;rounded=0;" vertex="1" parent="1">
          <mxGeometry x="330" y="200" width="20" height="15" as="geometry" />
        </mxCell>
        <mxCell id="wStOIU3TzQ-Em5fd87hs-139" value="1" style="text;html=1;strokeColor=none;fillColor=none;align=center;verticalAlign=middle;whiteSpace=wrap;rounded=0;" vertex="1" parent="1">
          <mxGeometry x="440" y="160" width="20" height="15" as="geometry" />
        </mxCell>
        <mxCell id="wStOIU3TzQ-Em5fd87hs-140" value="1" style="text;html=1;strokeColor=none;fillColor=none;align=center;verticalAlign=middle;whiteSpace=wrap;rounded=0;" vertex="1" parent="1">
          <mxGeometry x="525" y="117.5" width="20" height="15" as="geometry" />
        </mxCell>
        <mxCell id="wStOIU3TzQ-Em5fd87hs-142" value="1" style="text;html=1;strokeColor=none;fillColor=none;align=center;verticalAlign=middle;whiteSpace=wrap;rounded=0;" vertex="1" parent="1">
          <mxGeometry x="807" y="187.5" width="20" height="15" as="geometry" />
        </mxCell>
        <mxCell id="wStOIU3TzQ-Em5fd87hs-143" value="М" style="text;html=1;strokeColor=none;fillColor=none;align=center;verticalAlign=middle;whiteSpace=wrap;rounded=0;" vertex="1" parent="1">
          <mxGeometry x="895" y="377.5" width="20" height="15" as="geometry" />
        </mxCell>
        <mxCell id="wStOIU3TzQ-Em5fd87hs-144" value="1" style="text;html=1;strokeColor=none;fillColor=none;align=center;verticalAlign=middle;whiteSpace=wrap;rounded=0;" vertex="1" parent="1">
          <mxGeometry x="850" y="150" width="20" height="15" as="geometry" />
        </mxCell>
        <mxCell id="wStOIU3TzQ-Em5fd87hs-145" value="М" style="text;html=1;strokeColor=none;fillColor=none;align=center;verticalAlign=middle;whiteSpace=wrap;rounded=0;" vertex="1" parent="1">
          <mxGeometry x="920" y="190" width="20" height="15" as="geometry" />
        </mxCell>
        <mxCell id="wStOIU3TzQ-Em5fd87hs-146" value="М" style="text;html=1;strokeColor=none;fillColor=none;align=center;verticalAlign=middle;whiteSpace=wrap;rounded=0;" vertex="1" parent="1">
          <mxGeometry x="840" y="435" width="20" height="15" as="geometry" />
        </mxCell>
        <mxCell id="wStOIU3TzQ-Em5fd87hs-147" value="М" style="text;html=1;strokeColor=none;fillColor=none;align=center;verticalAlign=middle;whiteSpace=wrap;rounded=0;" vertex="1" parent="1">
          <mxGeometry x="785" y="485" width="20" height="15" as="geometry" />
        </mxCell>
        <mxCell id="wStOIU3TzQ-Em5fd87hs-148" value="М" style="text;html=1;strokeColor=none;fillColor=none;align=center;verticalAlign=middle;whiteSpace=wrap;rounded=0;" vertex="1" parent="1">
          <mxGeometry x="715" y="385" width="20" height="15" as="geometry" />
        </mxCell>
        <mxCell id="wStOIU3TzQ-Em5fd87hs-149" value="М" style="text;html=1;strokeColor=none;fillColor=none;align=center;verticalAlign=middle;whiteSpace=wrap;rounded=0;rotation=0;" vertex="1" parent="1">
          <mxGeometry x="835" y="385" width="20" height="15" as="geometry" />
        </mxCell>
        <mxCell id="wStOIU3TzQ-Em5fd87hs-150" value="М" style="text;html=1;strokeColor=none;fillColor=none;align=center;verticalAlign=middle;whiteSpace=wrap;rounded=0;" vertex="1" parent="1">
          <mxGeometry x="605" y="107.5" width="20" height="15" as="geometry" />
        </mxCell>
        <mxCell id="wStOIU3TzQ-Em5fd87hs-151" value="М" style="text;html=1;strokeColor=none;fillColor=none;align=center;verticalAlign=middle;whiteSpace=wrap;rounded=0;" vertex="1" parent="1">
          <mxGeometry x="740" y="145" width="20" height="15" as="geometry" />
        </mxCell>
      </root>
    </mxGraphModel>
  </diagram>
</mxfile>
